<svg xmlns="http://www.w3.org/2000/svg" width="219.76" height="122.84" style=""><rect id="backgroundrect" width="100%" height="100%" x="0" y="0" fill="none" stroke="none"/><title>The Commuters-Icon</title><g class="currentLayer" style=""><title>Layer 1</title><g id="Layer_2" data-name="Layer 2" class="selected" fill="#f8f9fa" fill-opacity="1"><g id="Layer_1-2" data-name="Layer 1" fill="#f8f9fa" fill-opacity="1"><rect x="46.95000076293945" y="9.989999771118164" width="33.84000015258789" height="10.579999923706055" id="svg_1" fill="#f8f9fa" fill-opacity="1"/><path d="M181.8,42.35a40,40,0,0,0-14.92,2L145.88.46,108,0l-.13,10.58,31.29.38L149.6,32.75l-48.78-1.23-.25,10.05,31.91.81-19.73,25.5,8,6.15,30.07-38.84L157.37,49a40.19,40.19,0,0,0,19.94,73.65c.77,0,1.53.06,2.3.06a40.2,40.2,0,0,0,2.19-80.34Zm27.33,41.79A29.62,29.62,0,1,1,162,58.66l12.67,26.5,9.55-4.57L171.49,54a29.42,29.42,0,0,1,8-1.13c.55,0,1.11,0,1.67,0A29.66,29.66,0,0,1,209.13,84.14Z" id="svg_2" fill="#f8f9fa" fill-opacity="1"/><path d="M60.93,72.29l19.38-25-8-6.15-7.53,9.73A40.21,40.21,0,1,0,38,122.78q1.13.06,2.25.06A40.27,40.27,0,0,0,80.35,84.89v0c0-.68.06-1.35.06-2l11.68.29.25-10Zm8.86,12a29.62,29.62,0,0,1-51.67,18.07A29.62,29.62,0,0,1,40.2,53c.55,0,1.1,0,1.66,0a29.57,29.57,0,0,1,16.07,5.84L39.78,82.34l30.05.76C69.82,83.5,69.81,83.9,69.79,84.3Z" id="svg_3" fill="#f8f9fa" fill-opacity="1"/></g></g></g></svg>