<?xml version="1.0" encoding="iso-8859-1"?>
<!-- Generator: Adobe Illustrator 16.0.0, SVG Export Plug-In . SVG Version: 6.00 Build 0)  -->
<!DOCTYPE svg PUBLIC "-//W3C//DTD SVG 1.1//EN" "http://www.w3.org/Graphics/SVG/1.1/DTD/svg11.dtd">
<svg version="1.1" id="Capa_1" xmlns="http://www.w3.org/2000/svg" xmlns:xlink="http://www.w3.org/1999/xlink" x="0px" y="0px"
	 width="77.07px" height="77.07px" viewBox="0 0 77.07 77.07" style="enable-background:new 0 0 77.07 77.07;" xml:space="preserve"
	>
<g>
	<g id="_x31__x5F_6">
		<g>
			<path d="M71.812,7.82H5.254C2.364,7.82,0,10.172,0,13.049v50.971c0,2.875,2.364,5.229,5.254,5.229h66.561
				c2.892,0,5.256-2.354,5.256-5.229V13.049C77.068,10.172,74.705,7.82,71.812,7.82z M68.241,13.049L39.516,41.635
				c-0.981,0.98-0.978,0.982-1.962,0L8.826,13.049H68.241z M71.812,61.492l-17.92-17.835c-1.025-1.021-2.688-1.021-3.715,0
				c-1.027,1.021-1.027,2.677,0,3.698l16.746,16.665h-56.45l16.744-16.664c1.026-1.021,1.026-2.677,0-3.698
				c-1.026-1.021-2.689-1.021-3.716,0L5.254,61.819v-44.93l28.581,28.445c1.485,1.477,3.466,2.291,5.574,2.291
				s2.338-0.814,3.823-2.291l28.58-28.447V61.492z"/>
		</g>
	</g>
</g>
<g>
</g>
<g>
</g>
<g>
</g>
<g>
</g>
<g>
</g>
<g>
</g>
<g>
</g>
<g>
</g>
<g>
</g>
<g>
</g>
<g>
</g>
<g>
</g>
<g>
</g>
<g>
</g>
<g>
</g>
</svg>
